<svg xmlns="http://www.w3.org/2000/svg" height="1024" preserveAspectRatio="none" style="display:block" viewBox="240.902 242.59 1570.084 1525.29" width="1024"><path d="M996.712 243.434c146.688-7.49 298.458 35.394 424.848 108.437 178.13 103.825 308.44 273.358 362.96 472.196a769.43 769.43 0 0 1-39.45 511.653c-16.24 36.93-34.72 68.96-54.83 103.72 12.81-.11 24.45.22 39.32-.3 13.04-.45 46.21-2.36 38.05 22.44-2.66 8.06-15.11 25.65-20.24 34.28l-39.91 67.12c-7.64 12.7-18.3 29.1-24.73 42.09l-.76 1.55c30.03 43.17 55.03 94.13 85.07 137.79 1.29 1.88 2.4 4.69 2.3 7.02-.49 10.57-7.58 16.38-17.97 16.15-31.62.47-63.15.29-94.72.12l-157.97-.45-522.18.05-461.765.07-148.42.04c-24.557.01-58.632.97-82.417-.51-6.882-5.05-12.681-11.95-7.418-20.62 29.063-47.9 59.092-95.6 88.337-143.43-12.419-21.91-85.979-134.75-86.458-147.21-.161-4.18 2.079-8.68 4.9-11.65 1.962-2.07 4.285-3.43 7.06-4.08 13.51-3.15 55.655-.89 72.068-.83a766 766 0 0 1-79.939-168.47c-70.362-210.54-49.585-418.545 48.936-615.843a349 349 0 0 1-12.346-22.513c-25.957-52.075-37.568-133.78-18.062-188.635 18.782-52.823 59.032-92.696 108.824-117.047 63.498-31.052 128.72-23.87 193.782-3.496 14.718 4.609 29.447 10.724 44.158 15.85 15.447-9.409 43.104-21.668 59.666-29.024 95.363-42.354 185.789-60.376 289.306-66.468" fill="#fefefe"/><path d="m1196.96 1468.5 533.54.41c-21.16 33.41-40.22 67.82-61.03 101.42-6.65 10.72-15.42 22.93-18.53 35.08 3.36 14.05 17.51 32.27 24.75 45.11 16.24 28.85 38.47 59.76 53.78 88.54l-879.97-.35-535.347.39c10.055-13.89 79.558-121.9 82.241-132.25.922-3.56.6-6.07-.79-9.42-6.132-14.79-17.028-29.51-25.39-43.22a2707 2707 0 0 1-50.809-85.24z" fill="#23283e"/><path d="M709.057 1536.47c34.542-1.33 63.672 25.49 65.201 60.02s-25.117 63.82-59.64 65.55c-34.808 1.74-64.388-25.17-65.93-59.99-1.541-34.82 25.543-64.24 60.369-65.58" fill="#fefefe"/><path d="M704.439 1569.15c7.077-.56 12.889-.88 19.52 2.04a27.86 27.86 0 0 1 15.237 16.59c5.995 17.31-1.738 36.25-19.582 42.24-46.487 1.32-50.159-47.99-15.175-60.87" fill="#23283e"/><path d="M979.531 1539.99c30.649-.36 74.789-5.79 98.239 17.29 23.29 22.91 20.62 60.35-1.13 83.56-27.08 21.58-62.99 17-96.866 16.81z" fill="#fefefe"/><path d="M1013.3 1568.77c13.32-.12 26.06-1.6 36.8 7.49a27.2 27.2 0 0 1 9.68 19.69c.45 9.69-2.86 16.8-9.07 23.88-12.45 9.42-22 9.17-36.84 9.35-.77-19.47-.47-40.81-.57-60.41" fill="#23283e"/><path d="M1428.23 1539.89c22.52-.22 46.54-1.6 68.7 1.15 25.44 3.9 38.77 25.01 32.89 49.77-3.15 13.27-11.15 19.62-21.98 26.21 8.94 13.11 18.42 26.61 26.88 39.97l-15.04.16-22.82.01c-7.44-11.5-16.34-24.63-22.76-36.5l-13.05.82-.14 36.11-33.49-.54c-.67-37.33.38-79.59.81-117.16" fill="#fefefe"/><path d="M1460.96 1568.59c13-.19 49.57-1.78 32.88 22.35-9.55 5.13-22.2 3.92-32.94 3.63z" fill="#23283e"/><path d="M1323.93 1539.48c31.38-.59 66.42 8.59 61.19 50.48-1.62 12.95-12.34 21.27-22.64 28.26 11.41 13.32 18.79 24 28.02 38.75-12.73.23-25.47.29-38.21.17l-5.73-8.62-17.17-26.72c-3.87.2-8.03.82-11.9 1.3l-.18 34.29-34.16-.02c-.37-38.95.08-78.56.15-117.57z" fill="#fefefe"/><path d="M1318.15 1568.87c13.52-.42 49.9-.29 29.8 23.27-4.85 2.29-14.61 4.3-20.03 4.49-14.19.52-10.38-19.58-9.77-27.76" fill="#23283e"/><path d="M823.073 1538.51c6.401-.85 7.394-1.54 12.332 2.69 20.558 17.66 38.034 38.8 59.693 55.16-.012-18.86.632-38.14.837-57.09l33.47-.08c-.125 25.12-.069 50.25.168 75.37.108 12.98.685 27.16-.124 40.06-.263 4.19-2.358 5.26-5.686 7.71-8.013-2.24-20.769-16.11-27.323-22.22a5748 5748 0 0 1-43.376-40.27l-.261 57.77c-11.29.13-22.58.19-33.87.17-.053-12.18-.747-114.5.998-118.24zm-315.675 1.58c36.137-.42 72.912-.01 109.095.07-4.609 8.67-13.815 22.14-19.311 30.55a2423 2423 0 0 0-36.555 56.65c16.425-.15 32.851-.18 49.276-.08l.02 29.84-106.237-.21c16.316-28.69 39.095-58.29 56.165-86.9q-26.368.54-52.741.63c.002-10.18.098-20.37.288-30.55m672.292-1.41 5.32.2c4.76 1.97 18.68 32.6 22 39.26 13.28 26.27 26.3 52.67 39.05 79.2-11.7.26-23.41.23-35.11-.09l-4.7-12.05-21.75-.06c-9.19-.03-18.38-.22-27.56-.55-1.66 4.06-3.91 8.67-5.76 12.71-10.76.31-22.65-.14-33.49-.32 9.26-20.53 23.85-45.65 34.38-65.92 8.02-15.44 18.87-37.99 27.62-52.38" fill="#fefefe"/><path d="M1180.49 1596.5c3.08 2.29 9.14 16.54 11 20.86-2.45 1.71-3.61 1.08-7.24 1.18l-14.39.01c3.95-7.65 7.22-14.17 10.63-22.05M338.184 414.912c51.604 1.563 107.535 22.408 153.598 45.452-29.766 13.237-38.378 22.604-51.02 51.984 21.424-18.851 36.114-29.859 65.366-34.819 110.093-18.667 209.069 115.077 164.576 215.342-5.365 12.088-12.2 21.376-20.25 32.106 15.293-9.304 23.465-17.457 34.831-31.186 26.07 31.467 48.073 78.685 61.71 116.879-24.409 13.275-54.981 18.397-82.499 18.408-5.144-20.576-9.176-60.797-17.431-76.934-6.81-4.882-10.247-6.145-18.197-8.028-24.821 10.403-28.024 12.816-55.096 15.321-3.626 9.56-9.79 45.117-12.449 57.41-6.321-1.36-26.692-9.01-29.288-7.713-29.034 14.503 19.058 25.851 25.485 27.76l-38.216 224.856-66.061 377.58-56.173-.15c-12.307-16.52-29.484-48.11-39.111-66.39a761.97 761.97 0 0 1-83.97-412.307c6.27-86.699 28.605-167.333 62.723-246.778 7.156-16.664 12.894-30.341 26.807-42.383-5.699-11.785-13.787-22.718-19.599-34.41-34.657-69.723-48.048-152.84-5.736-222" fill="#23283e"/><path d="M515.399 497.38c43.09-4.756 90.052 24.075 114.727 57.854 37.138 50.842 46.678 124.063-8.226 166.233-20.174 15.495-47.818 17.213-71.833 13.254-8.505-1.563-14.55-3.258-22.723-5.898 6.891-10.338 13.785-17.989 16.838-30.509 11.7-47.979-39.49-97.977-86.966-78.025-5.624 2.364-9.853 5.227-14.901 8.578a79.7 79.7 0 0 1-9.424-28.852c-7.346-54.544 28.904-96.359 82.508-102.635M400.228 681.407c13.044.429 22.568 2.203 34.022 8.843 27.578 15.985 41.162 55.797 13.382 78.544-8.402 6.88-15.828 9.201-26.201 11.142-15.514 1.076-27.973-1.13-40.96-10.166a53.1 53.1 0 0 1-22.601-36.178c-4.202-28.553 14.677-48.89 42.358-52.185" fill="#fefefe"/><path d="M475.772 637.205c31.742-.119 61.998 39.607 41.728 68.355-4.875 6.913-22.412 25.678-30.438 27.216l-1.602-1.102-.703-4.762c-5.444-33.803-28.434-52.213-58.999-63.352 13.479-8.366 34.956-23.312 50.014-26.355" fill="#fefefe"/><path d="M1674.73 648.443c2.92-.31 1.57-.552 4.2.739 30.74 44.676 56.22 113.312 72.01 165.15a636 636 0 0 0-46.82-2.263c-163.41-1.653-319.78 69.914-435.42 183.856-103.19 101.675-162.93 222.165-178.9 366.665-2.8 25.31-2.88 51.75-3.11 77.21l-78.79-.27c-26.955-.35-53.918-.21-80.872.43-6.971-153.72 50.83-334.98 147.052-455.253 40.35-50.435 91.31-95.155 136.71-140.92 102.29-103.093 238.02-163.576 380.44-186.015 27.6-4.368 55.63-6.455 83.5-9.329" fill="#4cc4b9"/><path d="M1226.29 892.391c20.75-3.39 40.37 10.543 44.01 31.256s-10.05 40.501-30.72 44.39a38.42 38.42 0 0 1-36.44-12.956 38.42 38.42 0 0 1-6.69-38.088 38.41 38.41 0 0 1 29.84-24.602m102.16-82.869c20.45-4.558 40.74 8.244 45.43 28.661s-7.98 40.791-28.37 45.611c-20.57 4.865-41.17-7.948-45.9-28.551-4.73-20.604 8.21-41.121 28.84-45.721m-189.86 184.925c20.78-1.403 38.76 14.323 40.12 35.103 1.37 20.79-14.39 38.73-35.17 40.07-20.74 1.33-38.63-14.39-40-35.12-1.36-20.73 14.32-38.654 35.05-40.053m313.01-248.508c20.66-1.2 38.41 14.493 39.76 35.142 1.35 20.648-14.21 38.518-34.85 40.016-20.85 1.513-38.95-14.246-40.31-35.107s14.53-38.839 35.4-40.051" fill="#fefefe"/><path d="M1698.31 955.445c27.23-1.124 54.51.481 81.41 4.79 3.7 77.375 1.61 118.595-12.23 195.115a317 317 0 0 0-54.94-8.65c-66.98-4.55-135.8 16.06-186.67 60.42-16.83-2.36-31.61-.86-47.18 6.48a70.4 70.4 0 0 0-36.42 40.34c-6.69 19.11-4.97 37.72 3.75 55.75-24.26 43.05-32.02 81.46-29.37 130.23-37.27-.48-75.09-.18-112.41-.2-23.47.09-48.14.57-71.52-.06-2.56-17.11-1.05-48.11 1.14-65.71 11.15-89.74 40.28-150.27 92.82-221.31 13.67 9.07 24.44 15.03 41.65 15.03a64.87 64.87 0 0 0 46.33-19.74c23.3-24.06 25.02-63.56.24-87.43 11.36-11.51 32.73-25.3 46.96-33.97 74.65-45.444 149.62-67.702 236.44-71.085" fill="#4cc4b9"/><path d="M829.405 768.632a423 423 0 0 1 40.784 12.274c84.876 30.59 147.721 89.117 186.051 170.36-7.47 5.737-20.37 19.027-27.46 25.961l-47.047 46.023-160.738 157.41c-25.829 25.9-53.051 51.39-78.047 77.86-8.499-52.1-20.347-108.23-30.371-160.47a7944 7944 0 0 1-44.11-247.253c67.586-6.899 119.317-26.791 160.938-82.165m110.533-399.216c26.214-2.122 65.012.078 91.002 3.907a580.76 580.76 0 0 1 378.99 228.069c-34.25 37.63-77.88 77.851-114.18 115.017-10.02-12.054-21.03-28.087-30.35-41.02-110.42-139.382-272.047-205.723-448.324-182.539-21.69-32.635-32.594-46.233-59.465-74.633 55.065-29.415 120.328-44.457 182.327-48.801" fill="#23283e"/><path d="M987.597 407.47a29.73 29.73 0 0 1 28.663 8.706 29.73 29.73 0 0 1 6.54 29.237 29.74 29.74 0 0 1-22.24 20.08c-15.916 3.335-31.561-6.741-35.108-22.614s6.32-31.651 22.145-35.409m324.143 212.977c4.3-.966 8.78.472 11.72 3.759a12.13 12.13 0 0 1 2.42 12.074 12.14 12.14 0 0 1-9.36 7.991c-6.51 1.15-12.74-3.102-14.04-9.576-1.29-6.474 2.81-12.8 9.26-14.248" fill="#4cc4b9"/><path d="M994.642 275.447q4.888-.21 9.778-.295c136.5-2.521 254.69 24.119 375.32 88.043a679.6 679.6 0 0 1 155.42 111.253c-36.26 35.572-79.27 79.057-113.66 116.112-25.66-36.417-68.43-78.393-102.93-106.419-6.11-5.751-22.61-17.49-29.8-22.576-43.86-31.046-94.35-58.331-145.06-76.296-138.25-48.975-266.779-42.372-398.812 20.83l-20.341-18.722a426 426 0 0 1 45.166-69.319c81.12-27.342 139.31-39.253 224.919-42.611" fill="#23283e"/><path d="M1365.49 422.651c16.33-2.637 31.77 8.263 34.75 24.53 2.97 16.267-7.6 31.93-23.8 35.247a30.39 30.39 0 0 1-29.11-9.927 30.39 30.39 0 0 1 18.16-49.85M1072.94 311.5c6.17-2.393 13.11.693 15.46 6.877s-.78 13.099-6.98 15.407c-6.14 2.285-12.98-.812-15.31-6.936-2.32-6.123.73-12.978 6.83-15.348" fill="#4cc4b9"/><path d="M866.562 504.426c34.889-3.46 92.99 3.726 126.692 11.814 120.886 29.011 224.556 106.274 289.856 211.438l-71.61 70.254a2814 2814 0 0 1-34.7 33.712c-21.45-32.718-35.58-52.561-63.77-80.262-70.99-69.75-152.687-105.467-249.966-121.335-5.816-50.014-15.712-78.169-37.694-122.017 12.695-1.887 28.396-2.842 41.192-3.604" fill="#23283e"/><path d="M863.612 645.917a534 534 0 0 1 52.693 10.984c102.425 27.186 194.995 93.697 248.345 185.876-17.97 18.874-40.28 41.127-59.45 58.678-12.34 12.149-24.44 24.054-37.37 35.573-9.53-17.086-16.95-29.559-27.97-45.764-43.674-64.245-124.012-122.193-201.916-135.089 18.945-37.369 25.847-68.861 25.668-110.258m-61.969-136.651c4.855 1.042 14.992 23.548 17.626 29.695 19.997 46.663 31.608 100.565 21.899 151.05-10.202 53.053-32.133 83.776-76.004 113.743l-11.714-28.506c-16.121-38.126-31.695-65.029-55.941-99.083 14.208-40.621 8.107-72.74-9.31-111.219 31.932-26.163 72.735-48.257 113.444-55.68" fill="#23283e"/><path d="M1671.18 1250.41c23.57-2.7 47.58 1.46 70.16 7.93-15.6 57.96-52.67 130.9-86.43 180.86-21.64.9-45.6.48-67.41.54l-66.23.15c-7.75-28.76-7.11-60.9 8.43-87.07 40.26-7.45 61.96-34.51 57.83-75.82 29.21-16.7 50.07-23.95 83.65-26.59" fill="#4cc4b9"/><path d="M489.738 326.427c45.172-3.351 92.908 9.329 134.542 26.106-39.839 27-85.581 57.656-119.904 91.355l-13.092-6.339c-42.723-19.599-94.599-39.666-141.753-40.689 43.212-42.479 77.957-65.812 140.207-70.433m124.253 926.493c13.864 10.83 30.924 22.25 45.342 32.65 16.672 12.02 35.444 25.83 53.024 36.21a1667 1667 0 0 1-27.328 18.37c-14.847 9.67-53.578 34.49-71.275 44.42-.629-.13-1.257-.26-1.886-.4-32.273-20.17-69.542-39.54-103.201-60 30.575-17.47 74.618-50.07 105.324-71.25m47.502-883.055c19.83 8.332 49.497 32.205 65.764 45.574-18.025 12.844-23.21 18.8-36.686 35.956-31.542-4.029-40.165 15.662-61.507 35.252l-9.23-6.58c-28.127-17.393-43.291-20.442-75.194-25.37 13.93-10.729 27.948-22.907 42.14-33.958a730 730 0 0 1 74.713-50.874m-47.357 720.085c.991.65 16.553 13.91 18.333 15.37a4862 4862 0 0 1 56.828 47.45 1102 1102 0 0 1-73.501 59.93c-17.6-9.59-62.362-47.81-77.807-61.6 24.402-17.55 51.627-42.15 76.147-61.15m124.303-662.841c15.11 9.955 46.209 51.197 57.118 67.193-40.303 11.063-56.093 15.45-91.067 42.951-7.714 5.852-13.935 11.854-20.832 18.617-5.245-9.119-9.284-16.292-15.533-24.834 18.802-21.526 49.734-40.733 33.922-71.112 13.753-16.066 18.444-21.263 36.392-32.815M612.501 941.862c16.205 15.509 31.616 34.29 48.864 51.033.436 3.592.552 7.655.753 11.305-11.013 12.65-35.782 35.91-49.098 46.85-18.588-14.19-35.675-32.16-52.536-48.56 12.355-17.127 37.319-43.917 52.017-60.628m112.122 406.998c3.505 3.11 11.469 80.71 12.766 90.92-14.202-.34-28.41-.28-42.609.16l-26.326-17.58c-10.434-6.49-20.344-13.78-30.344-20.93a3075 3075 0 0 0 86.513-52.57m-225.404 2.55c28.702 17.42 58.509 33.47 87.571 50.7-8.194 6.32-21.903 14.88-30.841 20.83-32.483 23.15-32.793 16.93-71.535 16.83 2.593-23.97 10.57-63.6 14.805-88.36m29.412-167.78c19.849 14.6 44.331 32.47 62.113 49.29-7.893 8.26-33.585 25.28-44.309 32.7-11.429 8.28-25.773 18.84-38.027 25.56 7.345-33.18 14.402-73.83 20.223-107.55m167.089 1.18c3.967 4.02 19.618 94.75 21.586 107.21-9.367-7.37-22.301-16.01-32.24-23.06-15.755-10.89-32.254-22.86-46.661-35.43 8.481-11.06 43.123-35.43 57.315-48.72m-141.264-146.35c4.765 2.49 29.994 26.39 36.042 31.92-9.856 9.28-19.165 17.17-29.549 25.88-6.846 5.38-12.341 10.51-18.694 16.41 3.101-23.74 8.507-50.07 12.201-74.21m32.472-189.861c20.686 4.146 29.386 5.899 50.412 6.772 1.037 3.655 1.838 7.511 2.687 11.227a535 535 0 0 0-14.765 14.318c-4.47 4.854-8.203 8.503-13.024 13.026-9.758-8.147-20.861-19.194-29.228-28.686 1.182-5.5 2.609-11.166 3.918-16.657m80.912 191.211c2.878 2.85 12.96 61.06 14.698 69.6l-16.973-14.2c-9.993-8.07-20.002-16.03-29.646-24.52 9.472-9.77 21.852-20.89 31.921-30.88m72.959-711.766c-.269 4.308-23.867 42.159-27.884 50.925-5.546-4.315-12.642-8.61-18.648-12.45l-13.873-9.436c20.024-10.013 40.293-19.201 60.405-29.039M612.545 1419.9c3.18 1.18 26.043 16.27 30.797 19.18l-26.092.05-33.243.12c8.628-7.03 19.051-13.46 28.538-19.35m-34.797-514.457c2.452 1.95 10.657 11.524 13.076 14.256-4.49 4.471-8.618 9.232-12.839 13.959l-5.957 7.54zm68.087-.568c1.91 2.972 5.297 28.914 6.104 34.333l-5.231-5.829c-4.324-4.64-8.757-9.801-13.005-14.566 4.545-4.295 8.2-9.08 12.132-13.938" fill="#23283e"/></svg>
